<?xml version="1.0" encoding="UTF-8"?>
<svg xmlns="http://www.w3.org/2000/svg" id="a" width="865.76" height="682.89" viewBox="0 0 865.76 682.89">
  <path d="M811.66,436.29c-29.15,121.73-118.29,135-118.29,135-45.14,12.44-130-6.93-130-6.93-34.86-11.28-97.43-12.44-97.43-12.44-16.86,.37-36.14,3.6-52.63,7.17-21.8,4.7-38.73,10-38.73,10-103.66,30.29-172.35,8.87-172.35,8.87-90.58-29.85-121.36-96.73-121.36-96.73-47.09-80.45-22.64-170.17-22.64-170.17,17.58-87.74,90.34-135.15,90.34-135.15,106.32-70.54,224-37.82,231.82-35.52l.42,.13c55,13.64,128.28-6.94,128.28-6.94,0,0,157.14-42.21,243.14,33.53,41.14,36.24,29.22,91.14,26.21,104.64-.64,2.73-.99,5.52-1.07,8.33-.38,21.27,6.41,42.05,19.26,59,.96,1.19,1.83,2.46,2.58,3.8,22.58,40.9,12.45,93.41,12.45,93.41Z" fill="#f69074"></path>
  <g opacity=".8">
    <path d="M811.66,436.29c-29.15,121.73-118.29,135-118.29,135-45.14,12.44-130-6.93-130-6.93-34.86-11.28-97.43-12.44-97.43-12.44-16.86,.37-36.14,3.6-52.63,7.17-21.8,4.7-38.73,10-38.73,10-103.66,30.29-172.35,8.87-172.35,8.87-90.58-29.85-121.36-96.73-121.36-96.73-47.09-80.45-22.64-170.17-22.64-170.17,17.58-87.74,90.34-135.15,90.34-135.15,106.32-70.54,224-37.82,231.82-35.52l.42,.13c55,13.64,128.28-6.94,128.28-6.94,0,0,157.14-42.21,243.14,33.53,41.14,36.24,29.22,91.14,26.21,104.64-.64,2.73-.99,5.52-1.07,8.33-.38,21.27,6.41,42.05,19.26,59,.96,1.19,1.83,2.46,2.58,3.8,22.58,40.9,12.45,93.41,12.45,93.41Z" fill="#fff"></path>
  </g>
  <path d="M266.32,585.72c-40.09,0-63.83-7.16-64.23-7.29-46.9-15.46-77.47-40.99-94.86-59.7-18.85-20.28-26.72-37.13-26.8-37.3-24.36-41.61-29.23-85.76-29.02-115.47,.22-32.18,6.29-54.82,6.36-55.04,9.1-45.4,33.23-79.81,51.87-100.68,20.2-22.61,38.49-34.64,38.68-34.76,44.47-29.5,95.99-44.7,153.12-45.16,44.05-.36,75.66,8.56,79.12,9.58l.43,.13c54.21,13.44,127.27-6.74,128-6.94,.4-.11,39.92-10.58,89.44-11.66,45.73-.99,109.62,6.06,154.16,45.29,27.24,23.99,36.35,60.34,26.37,105.12-.63,2.7-.98,5.47-1.06,8.23-.37,21.06,6.43,41.9,19.16,58.69,.97,1.2,1.85,2.5,2.62,3.86,22.41,40.59,12.61,93.22,12.51,93.75v.02c-15.1,63.03-46.55,96.48-70.28,113.44-25.73,18.39-48.21,21.91-48.43,21.94-44.69,12.32-129.33-6.74-130.18-6.94-34.43-11.14-96.7-12.42-97.33-12.43-14.36,.32-32.03,2.72-52.51,7.16-21.53,4.64-38.52,9.94-38.69,9.99-42.77,12.5-79.77,16.16-108.41,16.16Zm37.65-454.4c-.85,0-1.69,0-2.54,0-56.93,.46-108.27,15.59-152.58,44.99-.19,.12-18.39,12.1-38.5,34.61-18.55,20.77-42.57,55.02-51.62,100.22-.07,.26-6.11,22.8-6.33,54.85-.2,29.57,4.65,73.52,28.91,114.97,.1,.21,7.92,16.95,26.68,37.12,17.31,18.61,47.74,44.01,94.41,59.39,.68,.21,69.75,21.02,172.05-8.88,.16-.05,17.19-5.36,38.76-10.01,20.54-4.45,38.28-6.86,52.72-7.18,.65,.01,63.06,1.29,97.6,12.46,.8,.18,85.21,19.19,129.71,6.92,.28-.04,22.56-3.54,48.1-21.81,23.57-16.86,54.82-50.12,69.83-112.81,.19-1,9.73-52.98-12.4-93.06-.73-1.3-1.59-2.56-2.53-3.73-12.87-16.98-19.75-38.04-19.37-59.32,.08-2.84,.44-5.67,1.08-8.43,9.9-44.4,.89-80.42-26.05-104.15-44.3-39.01-107.9-46.02-153.46-45.04-49.41,1.07-88.83,11.52-89.22,11.62-.73,.2-74.03,20.46-128.53,6.94l-.45-.14c-3.37-.99-33.7-9.54-76.28-9.54Z" fill="#002346"></path>
  <g>
    <path d="M811.66,436.29c-10.74,44.82-29.6,74.93-49.16,95.1l-.06,.07c-4.7,4.84-9.71,9.36-15,13.54l-.44,.36c-1.26,1-2.52,1.95-3.76,2.86-.55,.41-1.11,.81-1.66,1.2-2.16,1.55-4.3,3-6.4,4.33l-64.11-33.43v-226.86h105.87l1.09-.33c2.01,16.69,8.43,32.55,18.6,45.94,.96,1.19,1.83,2.46,2.58,3.8,3.52,6.44,6.37,13.23,8.5,20.26,11.1,36.11,3.95,73.16,3.95,73.16Z" fill="#e6e7e8"></path>
    <path d="M735.21,554.33l-.26-.13-64.38-33.57v-227.66h106.3l1.59-.48,.07,.59c2,16.59,8.4,32.39,18.5,45.7,.97,1.2,1.85,2.5,2.62,3.86,3.54,6.46,6.41,13.31,8.54,20.36,11.01,35.81,4.03,73.03,3.96,73.4v.02c-9.4,39.23-25.99,71.3-49.29,95.33-4.75,4.9-9.82,9.47-15.11,13.66l-.43,.35c-1.15,.91-2.38,1.85-3.78,2.88-.55,.41-1.11,.81-1.67,1.2-2.19,1.57-4.35,3.03-6.42,4.35l-.24,.15Zm-63.63-34.31l63.59,33.16c1.98-1.26,4.05-2.66,6.13-4.16,.55-.39,1.11-.79,1.65-1.19,1.39-1.02,2.62-1.95,3.75-2.85l.43-.36c5.26-4.16,10.29-8.7,14.96-13.5,23.24-23.97,39.73-55.88,49.09-94.93,.15-.81,6.93-37.55-3.94-72.91-2.11-6.99-4.96-13.77-8.46-20.17-.74-1.3-1.59-2.56-2.53-3.73-10.1-13.3-16.54-29.05-18.63-45.6l-.67,.18h-105.37v226.06Z" fill="#002346"></path>
  </g>
  <g>
    <path d="M811.66,436.29c-10.74,44.82-29.6,74.93-49.16,95.1l-.13-.07-75-26.17v-152l120.34,10c11.1,36.09,3.95,73.14,3.95,73.14Z" fill="#fff"></path>
    <path d="M762.6,532.01l-.46-.25-75.26-26.25v-152.9l121.22,10.07,.1,.32c11.01,35.8,4.03,73.01,3.96,73.38v.02c-9.4,39.23-25.99,71.3-49.29,95.33l-.26,.27Zm-74.73-27.22l74.51,26c23.05-23.87,39.46-55.7,48.79-94.61,.15-.8,6.89-37.33-3.84-72.56l-119.46-9.93v151.1Z" fill="#002346"></path>
  </g>
  <g>
    <path d="M534.33,547.17v10.61c-2.08-.33-4.18-.65-6.28-.95-20.6-2.75-41.33-4.39-62.11-4.93-2.58,.06-5.22,.18-7.89,.37v-42l3.79-1.23,72.49,38.13Z" fill="#fff"></path>
    <path d="M534.83,558.37l-.58-.09c-2.08-.33-4.18-.65-6.27-.95-20.5-2.73-41.38-4.39-62.05-4.92-2.64,.06-5.28,.19-7.84,.37l-.54,.04v-42.9l4.34-1.41,.19,.1,72.76,38.27v11.5Zm-68.9-6.97c20.74,.54,41.65,2.2,62.19,4.93,1.91,.27,3.82,.56,5.71,.86v-9.72l-72.04-37.89-3.24,1.05v41.1c2.41-.16,4.88-.28,7.38-.33Z" fill="#002346"></path>
  </g>
  <g>
    <path d="M732.82,555.24c-3.62,2.21-7.12,4.13-10.43,5.79-16.83,8.45-29,10.26-29,10.26-45.14,12.44-130-6.93-130-6.93-3.79-1.23-7.91-2.33-12.24-3.33-5.35-1.24-11-2.31-16.8-3.23v-3.2l197.16-3.82,1.31,4.46Z" fill="#fff"></path>
    <path d="M655.43,575.93c-42.96,0-91.51-10.93-92.15-11.08-3.6-1.17-7.71-2.28-12.24-3.33-5.12-1.19-10.76-2.27-16.77-3.22l-.42-.07v-4.12h.49s197.54-3.84,197.54-3.84l1.53,5.19-.33,.2c-3.42,2.08-6.94,4.04-10.47,5.81-16.71,8.39-29.03,10.29-29.15,10.31-10.9,3-24.17,4.14-38.03,4.14Zm-120.58-18.55c5.87,.94,11.39,2.01,16.41,3.17,4.63,1.07,8.64,2.16,12.28,3.34,.8,.18,85.21,19.19,129.71,6.92,.18-.03,12.35-1.91,28.91-10.23,3.39-1.7,6.78-3.57,10.07-5.57l-1.09-3.73-196.29,3.8v2.28Z" fill="#002346"></path>
  </g>
  <g>
    <path d="M762.44,531.46c-4.82,4.97-9.98,9.62-15.42,13.9l-212.69,1.81s-77.68-51.2-82.03-54.36c-.07-.05-.03-.15,.05-.15l174.76-6.85,135.27,45.51,.06,.14Z" fill="#fff"></path>
    <path d="M534.18,547.67l-.13-.08c-.78-.51-77.74-51.24-82.05-54.37l-.29-.21,.07-.43c.07-.24,.29-.41,.54-.42l174.85-6.85,.09,.03,135.48,45.58,.28,.65-.23,.24c-4.82,4.97-10.03,9.66-15.47,13.94l-.13,.11h-.17s-212.84,1.81-212.84,1.81Zm-80.58-54.56c9.88,6.76,77.48,51.32,80.88,53.56l212.37-1.81c5.19-4.09,10.15-8.55,14.77-13.27l-134.58-45.28-173.44,6.8Z" fill="#002346"></path>
  </g>
  <g>
    <path d="M747.46,545l-.44,.36c-1.26,1-2.52,1.95-3.76,2.86-.55,.41-1.11,.81-1.66,1.2-3,2.17-6,4.12-8.88,5.88-.51,.32-1,.62-1.53,.92l-1.06,.62-1.22,.71c-2.24,1.27-4.41,2.43-6.52,3.48h-171.26c-5.35-1.24-11-2.31-16.8-3.23v-10.63l213.13-2.17Z" fill="#e6e7e8"></path>
    <path d="M722.51,561.53h-171.49c-5.11-1.2-10.75-2.28-16.77-3.24l-.42-.07v-11.55h.5s214.56-2.19,214.56-2.19l-1.54,1.26c-1.15,.91-2.38,1.85-3.78,2.88-.55,.41-1.11,.81-1.67,1.2-2.72,1.97-5.63,3.9-8.91,5.9-.51,.32-1.01,.62-1.54,.93l-2.27,1.33c-2.25,1.27-4.45,2.45-6.55,3.5l-.11,.05Zm-171.32-1h171.08c2.05-1.03,4.2-2.18,6.39-3.42l2.27-1.33c.53-.3,1.01-.6,1.52-.91,3.26-1.99,6.15-3.91,8.85-5.86,.55-.39,1.11-.79,1.65-1.2,1.11-.82,2.12-1.57,3.05-2.3l-211.18,2.15v9.71c5.86,.94,11.36,2,16.36,3.16Z" fill="#002346"></path>
  </g>
  <g>
    <path d="M534.33,547.17v10.61c-2.08-.33-4.18-.65-6.28-.95l-76.72-51,.78-13.14,82.22,54.48Z" fill="#e6e7e8"></path>
    <path d="M534.83,558.37l-.58-.09c-2.08-.33-4.18-.65-6.27-.95l-.21-.08-76.96-51.16,.85-14.29,83.17,55.11v11.46Zm-6.6-2.01c1.87,.27,3.74,.55,5.6,.84v-9.76l-81.27-53.85-.71,11.99,76.39,50.78Z" fill="#002346"></path>
  </g>
  <g>
    <path d="M654.48,526.73h105.17c.05,0,.07-.07,.02-.09l-71.61-35.27h-76.21l-19.96,1.3,62.59,34.06Z" fill="#fff"></path>
    <path d="M759.65,527.23h-105.3l-64.22-34.95,21.68-1.41h76.36s.1,.05,.1,.05l71.97,35.44-.15,.83-.45,.04Zm-105.04-1h103.11l-69.77-34.36h-76.09l-18.2,1.19,60.96,33.17Z" fill="#002346"></path>
  </g>
  <g>
    <rect x="654.48" y="526.73" width="105.39" height="4.59" fill="#e6e7e8"></rect>
    <path d="M760.37,531.82h-106.39v-5.59h106.39v5.59Zm-105.39-1h104.39v-3.59h-104.39v3.59Z" fill="#002346"></path>
  </g>
  <g>
    <polygon points="654.48 531.32 601.85 502.15 608.66 501.8 654.48 526.73 654.48 531.32" fill="#e6e7e8"></polygon>
    <path d="M654.98,532.17l-54.9-30.43,8.7-.45,.12,.07,46.08,25.07v5.74Zm-51.36-29.61l50.36,27.91v-3.44l-45.44-24.72-4.92,.25Z" fill="#002346"></path>
  </g>
  <g>
    <path d="M475.93,489.54l58.35,36.25s.06,.03,.09,.03h105.11c.18,0,.24-.25,.08-.33l-77.85-39.65s-.06-.02-.09-.02l-85.6,3.41c-.17,0-.23,.23-.08,.32Z" fill="#fff"></path>
    <path d="M639.48,526.31h-105.25l-.22-.11-58.34-36.24c-.25-.16-.37-.46-.3-.74,.08-.29,.33-.49,.62-.5l85.73-3.41,.2,.08,77.85,39.65c.28,.14,.42,.45,.35,.75-.07,.31-.34,.52-.66,.52Zm-.15-.38s0,0,0,0h0Zm-104.86-.62h103.65l-76.57-39-84.45,3.36,57.37,35.64Z" fill="#002346"></path>
  </g>
  <g>
    <rect x="534.32" y="525.81" width="105.88" height="5.51" fill="#e6e7e8"></rect>
    <path d="M640.7,531.82h-106.88v-6.51h106.88v6.51Zm-105.88-1h104.88v-4.51h-104.88v4.51Z" fill="#002346"></path>
  </g>
  <g>
    <polygon points="475.45 489.24 475.45 493.9 534.32 531.32 534.32 525.81 475.45 489.24" fill="#e6e7e8"></polygon>
    <path d="M534.82,532.23l-59.87-38.06v-5.83l59.87,37.19v6.7Zm-58.87-38.6l57.87,36.78v-4.32l-57.87-35.95v3.49Z" fill="#002346"></path>
  </g>
  <g>
    <rect x="405.36" y="191.79" width="147.72" height="171.55" fill="#fff"></rect>
    <path d="M553.58,363.84h-148.72V191.29h148.72v172.55Zm-147.72-1h146.72V192.29h-146.72v170.55Z" fill="#002346"></path>
  </g>
  <g>
    <rect x="398.11" y="191.79" width="7.25" height="171.55" fill="#fff"></rect>
    <path d="M405.86,363.84h-8.25V191.29h8.25v172.55Zm-7.25-1h6.25V192.29h-6.25v170.55Z" fill="#002346"></path>
  </g>
  <g>
    <rect x="414.46" y="210.06" width="74.69" height="10.72" fill="#f69074"></rect>
    <path d="M489.65,221.28h-75.69v-11.72h75.69v11.72Zm-74.69-1h73.69v-9.72h-73.69v9.72Z" fill="#002346"></path>
  </g>
  <g>
    <rect x="414.46" y="231.11" width="126.72" height="6.75" fill="#f69074"></rect>
    <path d="M541.68,238.36h-127.72v-7.75h127.72v7.75Zm-126.72-1h125.72v-5.75h-125.72v5.75Z" fill="#002346"></path>
  </g>
  <g>
    <rect x="414.46" y="246.79" width="126.72" height="6.75" fill="#f69074"></rect>
    <path d="M541.68,254.04h-127.72v-7.75h127.72v7.75Zm-126.72-1h125.72v-5.75h-125.72v5.75Z" fill="#002346"></path>
  </g>
  <g>
    <rect x="414.46" y="278.16" width="126.72" height="6.75" fill="#f69074"></rect>
    <path d="M541.68,285.41h-127.72v-7.75h127.72v7.75Zm-126.72-1h125.72v-5.75h-125.72v5.75Z" fill="#002346"></path>
  </g>
  <g>
    <rect x="414.46" y="293.46" width="126.72" height="6.75" fill="#f69074"></rect>
    <path d="M541.68,300.71h-127.72v-7.75h127.72v7.75Zm-126.72-1h125.72v-5.75h-125.72v5.75Z" fill="#002346"></path>
  </g>
  <g>
    <rect x="414.46" y="309.84" width="126.72" height="6.75" fill="#f69074"></rect>
    <path d="M541.68,317.09h-127.72v-7.75h127.72v7.75Zm-126.72-1h125.72v-5.75h-125.72v5.75Z" fill="#002346"></path>
  </g>
  <g>
    <rect x="414.46" y="324.61" width="126.72" height="6.75" fill="#f69074"></rect>
    <path d="M541.68,331.86h-127.72v-7.75h127.72v7.75Zm-126.72-1h125.72v-5.75h-125.72v5.75Z" fill="#002346"></path>
  </g>
  <g>
    <rect x="414.46" y="341.36" width="126.72" height="6.75" fill="#f69074"></rect>
    <path d="M541.68,348.61h-127.72v-7.75h127.72v7.75Zm-126.72-1h125.72v-5.75h-125.72v5.75Z" fill="#002346"></path>
  </g>
  <g>
    <rect x="414.46" y="262.47" width="126.72" height="6.75" fill="#f69074"></rect>
    <path d="M541.68,269.72h-127.72v-7.75h127.72v7.75Zm-126.72-1h125.72v-5.75h-125.72v5.75Z" fill="#002346"></path>
  </g>
  <g>
    <path d="M413.31,350.89v208.2c-21.8,4.7-38.73,10-38.73,10-103.66,30.29-172.35,8.87-172.35,8.87-51.64-17-83.85-46.07-102-67.91-4.23-5.07-8.18-10.36-11.83-15.86-2.8-4.16-5.32-8.5-7.54-13-2.89-4.94-5.5-9.9-7.84-14.87-2.29-4.79-4.34-9.6-6.19-14.4-4.53-11.82-8.01-24.01-10.41-36.43-1.24-6.33-2.18-12.55-2.87-18.6-5.52-48.28,4.71-85.83,4.71-85.83,2.55-12.68,6.35-25.07,11.33-37,4.13-9.95,9.01-19.57,14.6-28.78,27.59-45.4,64.38-69.37,64.38-69.37,106.32-70.54,224-37.82,231.82-35.52l.46,209.55h31.51c.53,0,.95,.43,.95,.95Z" fill="#e6e7e8"></path>
    <path d="M266.32,585.72c-40.09,0-63.83-7.16-64.23-7.29-51.96-17.11-84.28-46.46-102.24-68.07-4.22-5.06-8.21-10.41-11.86-15.9-2.81-4.16-5.35-8.55-7.57-13.06-2.86-4.9-5.51-9.91-7.84-14.88-2.2-4.59-4.28-9.45-6.2-14.43-4.52-11.81-8.03-24.1-10.43-36.52-1.19-6.08-2.16-12.35-2.88-18.64-5.47-47.82,4.62-85.64,4.72-86.02,2.54-12.65,6.37-25.13,11.35-37.06,4.13-9.94,9.05-19.65,14.63-28.85,27.33-44.98,64.17-69.29,64.53-69.53,44.47-29.5,95.99-44.7,153.12-45.16,44.04-.35,75.66,8.56,79.12,9.58l.36,.11v.37s.46,209.05,.46,209.05h31.01c.8,0,1.45,.65,1.45,1.45v208.6l-.39,.08c-21.53,4.64-38.52,9.94-38.69,9.99-42.77,12.5-79.77,16.16-108.41,16.16Zm37.65-454.4c-.84,0-1.69,0-2.54,0-56.93,.46-108.27,15.59-152.58,44.99-.37,.24-37.02,24.44-64.23,69.21-5.56,9.16-10.46,18.82-14.57,28.71-4.96,11.88-8.76,24.29-11.3,36.91-.11,.41-10.15,38.05-4.7,85.67,.71,6.26,1.68,12.5,2.86,18.56,2.39,12.36,5.88,24.59,10.39,36.35,1.91,4.96,3.99,9.79,6.17,14.36,2.32,4.94,4.96,9.93,7.82,14.83,2.22,4.49,4.74,8.85,7.52,12.97,3.63,5.46,7.6,10.79,11.8,15.82,17.88,21.51,50.04,50.73,101.77,67.76,.68,.21,69.75,21.02,172.05-8.88,.16-.05,16.98-5.29,38.37-9.92v-207.79c0-.25-.2-.45-.45-.45h-32.01l-.46-209.67c-4.77-1.37-34.58-9.44-75.93-9.44Z" fill="#002346"></path>
  </g>
  <g>
    <path d="M371.64,415.49v50.83H73.02c-2.29-4.79-4.34-9.6-6.19-14.4v-36.43H371.64Z" fill="#fff"></path>
    <path d="M372.14,466.82H72.71l-.14-.28c-2.2-4.6-4.28-9.45-6.21-14.44l-.03-.18v-36.93H372.14v51.83Zm-298.8-1H371.14v-49.83H67.33v35.84c1.86,4.83,3.88,9.53,6.01,13.99Z" fill="#002346"></path>
  </g>
  <g>
    <path d="M418.23,498.78v6.68c0,2.53-2.04,4.58-4.57,4.59H100.24c-4.23-5.07-8.18-10.36-11.83-15.86H413.64c2.53,0,4.59,2.06,4.59,4.59Z" fill="#e6e7e8"></path>
    <path d="M100.24,510.55h-.23l-.15-.18c-4.22-5.06-8.21-10.41-11.86-15.9l-.52-.78H413.64c2.81,0,5.09,2.28,5.09,5.09v6.68c0,2.8-2.27,5.08-5.07,5.09H100.24Zm.23-1H413.64c2.27,0,4.09-1.84,4.09-4.09v-6.68c0-2.25-1.83-4.09-4.09-4.09H89.35c3.45,5.12,7.19,10.12,11.13,14.86Z" fill="#002346"></path>
  </g>
  <g>
    <path d="M187.13,503.92s-3.87,44-4.94,67.5c0,0,15.55,5.59,20,6.61,0,0,3.37-58.82,6.57-71.14,.04,0-11.82-2.04-21.63-2.97Z" fill="#002346"></path>
    <path d="M202.66,578.65l-.58-.13c-4.43-1.01-19.42-6.4-20.06-6.63l-.35-.12,.02-.37c1.06-23.24,4.9-67.08,4.94-67.52l.04-.5,.5,.05c5.08,.48,10.7,1.26,14.51,1.83q7.59,1.14,7.57,1.66l-.02,.1c-3.15,12.13-6.52,70.45-6.55,71.04l-.03,.59Zm-19.95-7.57c2.22,.79,14.45,5.15,19.02,6.33,.38-6.48,3.42-57.45,6.42-70.11-2.31-.39-12.01-1.99-20.56-2.83-.43,4.93-3.86,44.66-4.88,66.61Z" fill="#002346"></path>
  </g>
  <g>
    <path d="M418.23,401.47v9.43c0,2.53-2.06,4.59-4.59,4.59H56.39c-1.24-6.33-2.18-12.55-2.87-18.6H413.64c2.53,0,4.58,2.04,4.59,4.57h0Z" fill="#fff"></path>
    <path d="M413.64,415.99H55.98l-.08-.4c-1.19-6.08-2.16-12.35-2.88-18.64l-.06-.56H413.65c1.35,0,2.62,.53,3.58,1.48,.96,.96,1.49,2.23,1.5,3.59v9.44c0,2.81-2.28,5.09-5.09,5.09Zm-356.84-1H413.64c2.26,0,4.09-1.83,4.09-4.09v-9.44c0-1.09-.43-2.11-1.2-2.88-.77-.77-1.79-1.19-2.88-1.19H54.08c.69,5.93,1.61,11.85,2.72,17.6Z" fill="#002346"></path>
  </g>
  <g>
    <rect x="66.8" y="306.03" width="300" height="43.91" fill="#fff"></rect>
    <path d="M367.3,350.44H66.3v-44.91H367.3v44.91Zm-300-1H366.3v-42.91H67.3v42.91Z" fill="#002346"></path>
  </g>
  <g>
    <rect x="66.8" y="306.03" width="300" height="16.51" fill="#e6e7e8"></rect>
    <path d="M367.3,323.04H66.3v-17.51H367.3v17.51Zm-300-1H366.3v-15.51H67.3v15.51Z" fill="#002346"></path>
  </g>
  <g>
    <path d="M366.8,245.28v47.89s-20.57-14.14-76.29-16.28l-220.95-2.85c4.14-9.94,9.03-19.56,14.63-28.76H366.8Z" fill="#fff"></path>
    <path d="M367.3,294.12l-.78-.54c-.21-.14-21.14-14.08-76.03-16.19l-221.68-2.86,.28-.68c4.14-9.93,9.07-19.63,14.66-28.83l.15-.24H367.3v49.34Zm-296.99-20.57l220.21,2.84c49.4,1.9,71.51,13.38,75.78,15.88v-46.5H84.47c-5.38,8.87-10.14,18.21-14.16,27.77Z" fill="#002346"></path>
  </g>
  <g>
    <path d="M122.08,237.46l-37.28,3s2.58,21.42,6.43,33.85l39.85-5.08s-9.85-16.34-9-31.77Z" fill="#e6e7e8"></path>
    <path d="M90.88,274.86l-.12-.4c-3.82-12.33-6.42-33.72-6.45-33.94l-.06-.52,.52-.04,37.85-3.05-.03,.57c-.83,15.09,8.83,31.32,8.93,31.48l.4,.66-41.03,5.23Zm-5.52-33.94c.42,3.3,2.83,21.63,6.22,32.84l38.69-4.93c-1.78-3.18-9.23-17.33-8.72-30.82l-36.19,2.91Z" fill="#002346"></path>
  </g>
  <g>
    <path d="M139.65,234.89l36.52,5.14s-1.37,23,2.06,31.86h-38.58s-3.85-13.43,0-37Z" fill="#e6e7e8"></path>
    <path d="M178.96,272.39h-39.69l-.1-.36c-.04-.14-3.84-13.81-.01-37.22l.08-.48,37.46,5.27-.03,.46c-.01,.23-1.32,22.99,2.03,31.65l.26,.68Zm-38.92-1h37.48c-2.91-8.63-2.05-27.63-1.87-30.93l-35.58-5.01c-3.32,20.78-.58,33.66-.03,35.94Z" fill="#002346"></path>
  </g>
  <g>
    <path d="M300.23,523.17l-91.43-16.28s-13.44-.92-22.42-3.14c-1.71-.44-2.78-2.13-2.46-3.86l16-86.43-16-162.57s-1.43-7.15,27.71-18l31.72-14s7.56-4.69,14.12-4.35l9.24-1.83c.35-1.18,1.01-2.23,1.92-3.06,1.16-1.18,3.06-1.19,4.24-.03,.05,.05,.1,.1,.15,.16l2.84,3,18.43,18.33-1.93,10.5,13.66,3.67s.31-10.72,7.15-15.64c1.29-.95,3.11-.67,4.05,.62,.29,.39,.47,.85,.54,1.33l1.65,12.83,32.21,27.47-3.42,70.14-47.4,179.75" fill="#fbe493"></path>
    <path d="M300.14,523.66l-91.43-16.28c-.08,0-13.53-.94-22.45-3.15-1.96-.5-3.2-2.45-2.83-4.44l15.99-86.36-15.99-162.5c-.05-.26-1.17-7.64,28.03-18.52l31.69-13.99c.25-.16,7.66-4.72,14.29-4.39l8.89-1.76c.39-1.15,1.07-2.18,1.97-3,1.34-1.35,3.56-1.37,4.93-.01,.06,.06,.12,.12,.17,.18l2.83,2.99,18.61,18.5-1.89,10.31,12.62,3.39c.18-2.42,1.25-11.03,7.32-15.4,.73-.54,1.63-.75,2.52-.62,.9,.14,1.69,.62,2.23,1.35,.34,.46,.55,1,.63,1.56l1.63,12.64,32.25,27.5v.25s-3.45,70.24-3.45,70.24l-47.4,179.75-.97-.26,47.39-179.7,3.41-69.84-32.17-27.44-1.67-13.02c-.05-.39-.21-.77-.44-1.1-.38-.52-.94-.86-1.57-.95-.63-.1-1.27,.06-1.78,.44-6.56,4.72-6.94,15.15-6.95,15.25l-.02,.63-14.72-3.95,1.97-10.69-18.24-18.14-2.85-3.01c-.05-.06-.09-.1-.14-.15-.98-.97-2.56-.96-3.53,.02-.86,.78-1.47,1.76-1.8,2.85l-.09,.29-9.6,1.9h-.06c-6.33-.33-13.76,4.23-13.83,4.27l-31.78,14.03c-28.09,10.46-27.43,17.39-27.42,17.46l16.01,162.68v.07s-16.01,86.43-16.01,86.43c-.27,1.47,.64,2.91,2.09,3.29,8.83,2.18,22.2,3.12,22.33,3.12l91.48,16.29-.18,.98Z" fill="#002346"></path>
  </g>
  <g>
    <path d="M261.1,278.04l-3.61-63.5,9.24-1.83,15.81,65.33s.46,6.38,8.67,8.06c0,0,10.64,4.1,35.88,3l-2.16-16.58-5.49-28.14,5,4.24c6.05,15.93,11.22,32.19,15.46,48.69,0,0,5.62,17.74,8.36,44.68l-1,70s4.67,69.19,7.56,92.91l6.2,67.49s-77.93,24.78-158.78,5.64c0,0,3-57.29,8.57-86.86,0,0,1.5-63-4.29-81l15.67-47.81,34-66.91c3.45-5.13,5.17-11.23,4.91-17.41Z" fill="#f69074"></path>
    <path d="M267.22,585.73c-20.45,0-42.7-1.91-65.09-7.21l-.41-.1,.02-.42c.03-.57,3.07-57.66,8.58-86.93,0-.55,1.42-63.04-4.27-80.75l-.05-.15,15.72-47.96,34.03-66.98c3.44-5.13,5.11-11.05,4.86-17.16l-3.63-63.93,10.14-2.01,.11,.47,15.81,65.33c.03,.33,.57,6.11,8.28,7.69,.18,.06,10.79,4.01,35.21,3.01l-2.09-16.04-5.76-29.5,6.18,5.24,.05,.12c6.04,15.89,11.25,32.29,15.48,48.74,.05,.15,5.66,18.07,8.37,44.75l-1,70.06c.05,.65,4.7,69.41,7.56,92.84l6.24,67.91-.38,.12c-.56,.18-41.3,12.86-93.95,12.86Zm-64.46-8.09c76.76,18.03,151.7-3.78,157.72-5.61l-6.16-67.09c-2.86-23.45-7.51-92.23-7.56-92.92l1-70.04c-2.7-26.51-8.28-44.34-8.34-44.52-4.22-16.4-9.4-32.73-15.4-48.54l-3.82-3.23,5.22,26.74,2.24,17.15-.54,.02c-25.06,1.09-35.64-2.86-36.08-3.03-8.4-1.71-8.98-8.42-8.99-8.49l-15.68-64.78-8.34,1.65,3.59,63.07c.26,6.33-1.46,12.45-4.99,17.71l-33.97,66.86-15.59,47.59c5.69,18.08,4.28,80.38,4.26,81.01-5.26,27.95-8.26,81.19-8.55,86.46Z" fill="#002346"></path>
  </g>
  <g>
    <path d="M170.71,413.7c4.07-.75,7.94-2.34,11.37-4.67l-5.9-2.47c-1.17,.99-2.26,2.09-3.23,3.28-.92,1.11-1.74,2.3-2.45,3.56-.08,.15,.05,.33,.22,.3Z" fill="#fbe493"></path>
    <path d="M170.67,414.21c-.22,0-.43-.11-.57-.3-.16-.23-.18-.52-.04-.75,.72-1.28,1.56-2.5,2.5-3.64,.99-1.21,2.1-2.33,3.29-3.34l.23-.2,7.03,2.94-.76,.52c-3.5,2.38-7.39,3.98-11.56,4.75-.04,0-.09,.01-.13,.01Zm5.59-7.07c-1.06,.92-2.04,1.93-2.93,3.02-.76,.92-1.46,1.91-2.08,2.93,3.48-.72,6.76-2.05,9.76-3.96l-4.75-1.99Z" fill="#002346"></path>
  </g>
  <g>
    <path d="M280.49,186.23l-4.66,26.55,18.43,18.33-1.93,10.5,13.69,3.67s1.28-11.47,6.43-14.89l.54-13.37-31.7-31.32-.8,.53Z" fill="#f2b3c1"></path>
    <path d="M306.45,245.91l-14.7-3.94,1.97-10.69-18.43-18.33,4.74-27.02,1.32-.87,32.15,31.76-.56,13.85-.21,.14c-4.9,3.25-6.2,14.42-6.21,14.53l-.06,.58Zm-13.55-4.67l12.69,3.4c.33-2.38,1.86-11.29,6.36-14.53l.52-12.9-31.25-30.88-.28,.19-4.58,26.08,18.43,18.33-1.89,10.31Z" fill="#002346"></path>
  </g>
  <g>
    <path d="M393.38,372.89s-24.33,4.37-32.78,31.71c-.75,2.42-1.34,4.89-1.77,7.39,0,0-9.53,3-11.62-3.57l.66-42.89,.36-23.5,3.41-69.85s.07-.05,.08,0l19.63,87.1c2.29,1.33,3.83,3.64,4.17,6.26l17.87,7.36Z" fill="#fbe493"></path>
    <path d="M354.19,413.15c-2.91,0-6.27-.87-7.46-4.58l-.02-.08v-.08s1.02-66.39,1.02-66.39l3.43-70.31,.91-.11,.13,.46,19.58,86.89c2.22,1.36,3.76,3.66,4.18,6.22l19.19,7.9-1.68,.3c-.24,.04-24.13,4.65-32.39,31.37-.74,2.4-1.33,4.86-1.75,7.33l-.05,.3-.29,.09s-2.24,.69-4.79,.69Zm-6.48-4.81c1.77,5.32,9.13,3.66,10.68,3.25,.43-2.4,1.01-4.8,1.73-7.14,7.21-23.34,26.14-30.17,31.65-31.69l-16.72-6.89-.04-.29c-.32-2.45-1.79-4.65-3.93-5.89l-.19-.11-18.93-84.01-3.24,66.47-1.02,66.29Z" fill="#002346"></path>
  </g>
  <g>
    <path d="M358.83,411.99s8.64-2,13.11-6.14l-11.34-1.25c-.81,2.41-1.4,4.88-1.77,7.39Z" fill="#fbe493"></path>
    <path d="M358.23,412.64l.11-.72c.37-2.53,.98-5.05,1.79-7.48l.13-.38,12.83,1.41-.8,.74c-4.52,4.18-12.98,6.18-13.34,6.26l-.71,.17Zm2.72-7.5c-.66,2.01-1.16,4.09-1.51,6.18,1.99-.54,7.62-2.23,11.29-5.1l-9.78-1.08Z" fill="#002346"></path>
  </g>
  <g>
    <path d="M410.93,501.83l-25.81,15.49c-2.33,1.39-5.35,.63-6.75-1.7-.05-.08-.09-.16-.13-.24l-3.66-7-13.47-25.92c-.82-1.57-.26-3.51,1.28-4.4l7.49-4.34c.91-.53,1.21-1.7,.68-2.61-.02-.03-.04-.06-.06-.1l-62.67-92.25c-1.87-2.79-1.13-6.56,1.66-8.44,.99-.66,2.15-1.02,3.34-1.03h.23c1.99,.07,3.82,1.12,4.89,2.8l59.86,94.12c.99,1.56,2.99,2.13,4.66,1.34l5.77-2.74c1.47-.7,3.22-.23,4.15,1.1l5.7,8.24,9.77,14.12,4.56,6.59c1.53,2.24,.97,5.29-1.27,6.83-.07,.05-.15,.1-.22,.14Z" fill="#fff"></path>
    <path d="M382.61,518.52c-.44,0-.89-.05-1.33-.17-1.4-.35-2.59-1.23-3.33-2.48-.05-.08-.1-.17-.15-.26l-3.66-7-13.47-25.92c-.95-1.82-.3-4.04,1.47-5.06l7.49-4.34c.32-.19,.55-.5,.65-.86,.1-.37,.04-.74-.15-1.07l-62.71-92.32c-2.02-3.01-1.22-7.11,1.79-9.13,1.07-.72,2.32-1.11,3.62-1.12h.23c2.17,.08,4.15,1.21,5.31,3.03l59.86,94.12c.86,1.34,2.59,1.84,4.02,1.16l5.77-2.74c1.7-.81,3.7-.27,4.77,1.26l20.03,28.95c1.69,2.46,1.06,5.83-1.4,7.52-.08,.06-.16,.11-.25,.16l-25.81,15.49c-.85,.51-1.8,.77-2.77,.77Zm-69.57-148.73h-.21c-1.09,0-2.15,.34-3.06,.95-2.55,1.72-3.24,5.19-1.52,7.74l62.75,92.37c.33,.56,.42,1.2,.25,1.83s-.56,1.15-1.11,1.47l-7.49,4.34c-1.31,.76-1.79,2.4-1.09,3.74l17.13,32.92c.04,.07,.08,.14,.12,.21,.61,1.01,1.57,1.73,2.71,2.02,1.14,.29,2.33,.11,3.35-.49l25.81-15.49c.07-.04,.13-.08,.19-.12,2.01-1.38,2.52-4.13,1.14-6.13l-20.03-28.95c-.79-1.13-2.27-1.53-3.52-.93l-5.77,2.74c-1.89,.9-4.17,.25-5.3-1.52l-59.86-94.12c-.98-1.54-2.66-2.5-4.49-2.57Z" fill="#002346"></path>
  </g>
  <g>
    <path d="M410.93,501.83l-25.81,15.49c-2.33,1.39-5.35,.63-6.75-1.7-.05-.08-.09-.16-.13-.24l-3.66-7,33.3-20.1,4.56,6.59c1.53,2.24,.95,5.3-1.3,6.82-.07,.05-.14,.09-.21,.14Z" fill="#e6e7e8"></path>
    <path d="M382.61,518.52c-.44,0-.89-.05-1.33-.17-1.4-.35-2.59-1.23-3.33-2.48-.05-.08-.1-.17-.15-.26l-3.88-7.42,.4-.24,33.7-20.34,4.83,6.98c1.68,2.47,1.04,5.84-1.43,7.52-.08,.05-.16,.1-.24,.15h0s-25.81,15.49-25.81,15.49c-.85,.51-1.8,.77-2.77,.77Zm-7.37-9.95l3.44,6.58c.04,.07,.08,.14,.12,.21,.61,1.01,1.57,1.73,2.71,2.02,1.14,.29,2.33,.11,3.35-.49l25.81-15.49c.06-.04,.13-.08,.19-.12,2.01-1.37,2.53-4.12,1.16-6.13l-4.29-6.2-32.49,19.61Z" fill="#002346"></path>
  </g>
  <g>
    <path d="M360.6,404.6l61.7,7.39,45.13,4.03s2.28-5.43-3.04-11.42l-8.79-10.16s-1.85-4.16-13.41-3.7c0,0-9,.41-12.72-1.64l-36.09-16.21s-23.71,3.24-32.78,31.71Z" fill="#f2b3c1"></path>
    <path d="M467.75,416.55l-45.49-4.06-62.32-7.46,.18-.58c9.06-28.44,32.95-32.02,33.19-32.05l.14-.02,36.22,16.27c3.59,1.98,12.4,1.6,12.49,1.6,11.05-.44,13.52,3.31,13.85,3.92l8.75,10.11c5.46,6.15,3.22,11.71,3.12,11.94l-.14,.34Zm-106.48-12.37l61.1,7.32,44.73,3.99c.38-1.24,1.28-5.66-3.07-10.55l-8.87-10.29s-1.97-3.86-12.93-3.4c-.37,.01-9.18,.39-12.98-1.7l-35.92-16.13c-1.92,.33-23.41,4.58-32.05,30.77Z" fill="#002346"></path>
  </g>
  <g>
    <path d="M476.63,428.86c-.32,.51-.72,.97-1.18,1.36h0c-1.88,1.63-4.54,2.02-6.81,1l-65.38-29.34c-4.54-2.03-6.76-7.21-5.1-11.9,.22-.62,.51-1.22,.85-1.78,2.67-4.39,8.34-5.88,12.82-3.37l62.55,35c.69,.38,1.31,.9,1.81,1.51,1.78,2.15,1.96,5.22,.44,7.56v-.04Z" fill="#f69074"></path>
    <path d="M471.25,432.28c-.96,0-1.91-.2-2.81-.6l-65.38-29.34c-4.74-2.12-7.1-7.62-5.37-12.52,.24-.65,.54-1.28,.89-1.87,2.82-4.65,8.75-6.21,13.49-3.55l62.55,35c.75,.41,1.41,.96,1.95,1.63,1.93,2.33,2.12,5.61,.47,8.15l-.92,1.42v-.32c-.11,.11-.23,.22-.35,.33-1.27,1.1-2.89,1.68-4.53,1.68Zm-64.1-48.18c-3.05,0-6.01,1.56-7.71,4.36-.32,.53-.6,1.1-.81,1.69-1.56,4.41,.56,9.36,4.83,11.27l65.38,29.34c2.08,.93,4.55,.57,6.28-.92,.42-.36,.79-.78,1.09-1.25l.29-.45c1.1-2.09,.84-4.63-.69-6.48-.47-.57-1.03-1.04-1.67-1.39l-62.55-35c-1.41-.79-2.93-1.17-4.44-1.17Z" fill="#002346"></path>
  </g>
  <g>
    <path d="M380.81,332.65l.04,17.29h31.77c.18,0,.24-.24,.08-.33l-31.89-16.96Z" fill="#fff"></path>
    <path d="M412.62,350.44h-32.26l-.04-18.62,32.62,17.36c.27,.15,.41,.46,.34,.76s-.34,.51-.65,.51Zm-31.27-1h29.96l-29.99-15.96,.04,15.96Z" fill="#002346"></path>
  </g>
  <g>
    <path d="M573.07,409.39v73.19c0,7.18-5.82,13-13,13h-60.18c-7.18,0-13-5.82-13-13v-73.19h86.18Z" fill="#f69074"></path>
    <path d="M560.07,496.08h-60.18c-7.44,0-13.5-6.06-13.5-13.5v-73.69h87.18v73.69c0,7.44-6.06,13.5-13.5,13.5Zm-72.68-86.19v72.69c0,6.89,5.61,12.5,12.5,12.5h60.18c6.89,0,12.5-5.61,12.5-12.5v-72.69h-85.18Z" fill="#002346"></path>
  </g>
  <g>
    <rect x="523.79" y="399.74" width="12.38" height="5.15" fill="#e6e7e8"></rect>
    <path d="M536.67,405.39h-13.38v-6.15h13.38v6.15Zm-12.38-1h11.38v-4.15h-11.38v4.15Z" fill="#002346"></path>
  </g>
  <g>
    <rect x="520.49" y="391.19" width="18.98" height="8.82" rx="2.49" ry="2.49" fill="#fff"></rect>
    <path d="M536.98,400.51h-14c-1.65,0-2.99-1.34-2.99-2.99v-3.84c0-1.65,1.34-2.99,2.99-2.99h14c1.65,0,2.99,1.34,2.99,2.99v3.84c0,1.65-1.34,2.99-2.99,2.99Zm-14-8.82c-1.1,0-1.99,.89-1.99,1.99v3.84c0,1.1,.89,1.99,1.99,1.99h14c1.1,0,1.99-.89,1.99-1.99v-3.84c0-1.1-.89-1.99-1.99-1.99h-14Z" fill="#002346"></path>
  </g>
  <g>
    <path d="M576.02,403.01h5.17c.77,0,1.4,.63,1.4,1.4h0v2.48h-8v-2.48c0-.77,.63-1.4,1.4-1.4,.01,0,.02,0,.03,0Z" fill="#fff"></path>
    <path d="M583.09,407.39h-9v-2.98c0-1.05,.85-1.9,1.9-1.9h.03s5.17,0,5.17,0c1.05,0,1.9,.85,1.9,1.9v2.98Zm-8-1h7v-1.98c0-.5-.4-.9-.9-.9h-5.21c-.49,0-.89,.4-.89,.9v1.98Z" fill="#002346"></path>
  </g>
  <g>
    <path d="M573.07,411.51s3.59-.13,3.71-4.62h2.79s.54,6-6.5,7.65v-3.03Z" fill="#e6e7e8"></path>
    <path d="M572.57,415.17v-4.14l.48-.02c.14,0,3.12-.19,3.23-4.13v-.49h3.75l.04,.46c0,.06,.49,6.45-6.88,8.18l-.61,.14Zm1-3.23v1.95c4.92-1.43,5.47-5.19,5.51-6.5h-1.83c-.29,3.46-2.65,4.33-3.68,4.55Z" fill="#002346"></path>
  </g>
  <g>
    <path d="M485.34,406.89h-8v-2.48c0-.77,.63-1.4,1.4-1.4h5.17c.77,0,1.4,.63,1.4,1.4v2.48h.03Z" fill="#fff"></path>
    <path d="M485.34,407.39h-8.5v-2.98c0-1.05,.85-1.9,1.9-1.9h5.17c1.05,0,1.9,.85,1.9,1.9v2.48h-.47v.5Zm-7.5-1h6.97v-1.98c0-.5-.4-.9-.9-.9h-5.17c-.5,0-.9,.4-.9,.9v1.98Z" fill="#002346"></path>
  </g>
  <g>
    <path d="M486.91,411.51s-3.59-.13-3.71-4.62h-2.79s-.54,6,6.5,7.65v-3.03Z" fill="#e6e7e8"></path>
    <path d="M487.41,415.17l-.61-.14c-7.38-1.73-6.89-8.12-6.88-8.18l.04-.46h3.73v.49c.12,3.98,3.11,4.13,3.24,4.13l.48,.02v4.14Zm-6.51-7.78c.04,1.32,.59,5.07,5.51,6.5v-1.95c-1.03-.22-3.39-1.09-3.68-4.55h-1.83Z" fill="#002346"></path>
  </g>
  <g>
    <rect x="641.67" y="375.25" width="15.3" height="6.37" fill="#e6e7e8"></rect>
    <path d="M657.47,382.12h-16.3v-7.37h16.3v7.37Zm-15.3-1h14.3v-5.37h-14.3v5.37Z" fill="#002346"></path>
  </g>
  <g>
    <path d="M640.08,365.91h18.48c1.38,0,2.49,1.08,2.49,2.42v5.77c0,1.34-1.11,2.42-2.49,2.42h-18.48c-1.38,0-2.49-1.08-2.49-2.42v-5.77c0-1.34,1.11-2.42,2.49-2.42Z" fill="#fff"></path>
    <path d="M658.56,377.02h-18.48c-1.65,0-2.99-1.31-2.99-2.92v-5.77c0-1.61,1.34-2.92,2.99-2.92h18.48c1.65,0,2.99,1.31,2.99,2.92v5.77c0,1.61-1.34,2.92-2.99,2.92Zm-18.48-10.61c-1.1,0-1.99,.86-1.99,1.92v5.77c0,1.06,.89,1.92,1.99,1.92h18.48c1.1,0,1.99-.86,1.99-1.92v-5.77c0-1.06-.89-1.92-1.99-1.92h-18.48Z" fill="#002346"></path>
  </g>
  <g>
    <path d="M702.32,387.34s4.44-.16,4.59-5.72h3.44s.68,7.44-8,9.48l-.03-3.76Z" fill="#e6e7e8"></path>
    <path d="M701.86,391.73l-.04-4.87,.48-.02c.16,0,3.98-.23,4.11-5.23v-.49h4.4l.04,.45c0,.08,.62,7.9-8.38,10.01l-.61,.14Zm.97-3.96l.02,2.68c6.44-1.8,7.01-6.79,7.02-8.34h-2.48c-.33,4.41-3.36,5.43-4.56,5.66Z" fill="#002346"></path>
  </g>
  <g>
    <path d="M595.8,387.34s-4.43-.16-4.59-5.72h-3.44s-.67,7.44,8,9.48l.03-3.76Z" fill="#e6e7e8"></path>
    <path d="M596.27,391.73l-.61-.14c-8.99-2.11-8.39-9.93-8.38-10.01l.04-.46h4.38v.49c.16,5.03,3.96,5.23,4.12,5.24l.49,.02-.04,4.87Zm-8.01-9.61c.02,1.55,.59,6.54,7.02,8.34l.02-2.68c-1.2-.23-4.23-1.24-4.56-5.66h-2.48Z" fill="#002346"></path>
  </g>
  <g>
    <path d="M784.72,318.4l-99.92-1.81v-11.81l8.57-3h86.11c1.24,5.69,2.99,11.25,5.24,16.62Z" fill="#fff"></path>
    <path d="M785.48,318.91l-101.18-1.83v-12.66l9.07-3.15h86.51l.09,.39c1.23,5.64,2.98,11.21,5.21,16.53l.3,.71Zm-100.18-2.81l98.67,1.79c-2.07-5.04-3.71-10.29-4.89-15.61h-85.62l-8.16,2.85v10.96Z" fill="#002346"></path>
  </g>
  <g>
    <polygon points="532.51 127.74 543.55 127.74 669.8 261.03 664.65 267.24 532.51 127.74" fill="#e6e7e8"></polygon>
    <path d="M664.68,267.99l-133.33-140.75h12.42l.15,.16,126.56,133.61-5.79,6.99Zm-131-139.75l130.95,138.25,4.51-5.43-125.8-132.81h-9.66Z" fill="#002346"></path>
  </g>
  <g>
    <polygon points="760.09 260.82 669.8 261.03 664.65 267.24 764.94 266.39 760.09 260.82" fill="#e6e7e8"></polygon>
    <path d="M663.58,267.75l5.99-7.22h.23s90.52-.21,90.52-.21l5.71,6.56-102.45,.87Zm6.46-6.22l-4.31,5.2,98.13-.83-3.99-4.58-89.83,.21Z" fill="#002346"></path>
  </g>
  <g>
    <path d="M270.93,179.52s3.03,13.52,8.07,15.23l1.93-13.23s-5.83,4.45-10-2Z" fill="#002346"></path>
    <path d="M279.41,195.42l-.57-.19c-5.25-1.78-8.27-15.03-8.4-15.6l-.61-2.73,1.52,2.35c1.18,1.83,2.61,2.9,4.24,3.19,2.65,.46,5.01-1.3,5.04-1.31l.97-.74-2.19,15.04Zm-7.42-13.8c1.03,3.64,3.38,10.66,6.61,12.41l1.68-11.52c-1.05,.56-2.85,1.26-4.85,.91-1.27-.22-2.41-.83-3.44-1.81Z" fill="#002346"></path>
  </g>
  <g>
    <path d="M781.37,255.07c-.48,4-1.08,7.58-1.64,10.53l-119.71-139.44-.11-.13,11.15,1.39,.95,1.1,109.36,126.55Z" fill="#e6e7e8"></path>
    <path d="M780.03,266.71l-121.33-141.34,12.61,1.57,1.08,1.25,109.5,126.72-.03,.22c-.41,3.42-.96,6.98-1.65,10.56l-.19,1.02Zm-118.9-140.03l118.3,137.8c.58-3.14,1.05-6.25,1.42-9.25l-110.04-127.34-9.68-1.21Z" fill="#002346"></path>
  </g>
  <g>
    <rect x="277.93" y="123.52" width="66" height="94" rx="33" ry="33" fill="#f2b3c1"></rect>
    <path d="M310.93,218.02c-18.47,0-33.5-15.03-33.5-33.5v-28c0-18.47,15.03-33.5,33.5-33.5s33.5,15.03,33.5,33.5v28c0,18.47-15.03,33.5-33.5,33.5Zm0-94c-17.92,0-32.5,14.58-32.5,32.5v28c0,17.92,14.58,32.5,32.5,32.5s32.5-14.58,32.5-32.5v-28c0-17.92-14.58-32.5-32.5-32.5Z" fill="#002346"></path>
  </g>
  <g>
    <path d="M285.8,173.41c0,5.58-3.64,10.11-8.14,10.11s-8.13-4.52-8.13-10.11c0-1.07,.13-2.13,.41-3.17,1.07-4.03,4.12-6.93,7.72-6.93s6.66,2.9,7.73,6.93c.28,1.04,.41,2.1,.41,3.17Z" fill="#f2b3c1"></path>
    <path d="M277.66,184.02c-4.76,0-8.63-4.76-8.63-10.61,0-1.11,.14-2.21,.43-3.3,1.16-4.37,4.46-7.3,8.2-7.3s7.05,2.94,8.21,7.3c.29,1.08,.43,2.19,.43,3.29h0c0,5.85-3.88,10.61-8.64,10.61Zm0-20.21c-3.29,0-6.19,2.64-7.24,6.56-.27,1-.4,2.02-.39,3.04,0,5.3,3.42,9.61,7.63,9.61s7.64-4.31,7.64-9.61h0c0-1.02-.13-2.04-.39-3.04-1.04-3.92-3.95-6.56-7.25-6.56Z" fill="#002346"></path>
  </g>
  <g>
    <path d="M343.17,160.04s-1.67-11.6-3.23-13.19c0,0-.43-.47-1.27,.23-1.13,.97-2.52,1.58-4,1.74-5.24,.42-15.81,.29-24.08-6,0,0-2.24,8.59-12,7-1.5-.27-3.02,.33-3.93,1.56-1.47,2.28-2.36,4.89-2.59,7.59,.34,5.06-2.23,9.87-6.62,12.4-1.07-4.72-4.12-8.12-7.73-8.12s-6.65,3.4-7.72,8.12c0,0-.75-13.36,2.36-21.18,0,0-8.55-1.08-1.22-6.86,0,0,60.86-6.54,77.72,2.36-.06,.09,4.16,9.36-5.69,14.35Z" fill="#002346"></path>
    <path d="M269.7,174.95l-.2-3.56c-.03-.54-.69-12.94,2.18-20.82-1.13-.24-3.46-.93-3.92-2.61-.4-1.44,.61-3.09,3.08-5.04l.11-.09,.14-.02c2.49-.27,61.21-6.45,78.01,2.42l.49,.26-.18,.26c1.03,3.03,2.46,10.42-6.01,14.72l-.62,.31-.1-.69c-.64-4.42-2.04-11.84-3.09-12.91-.03-.02-.23-.04-.59,.26-1.2,1.04-2.68,1.68-4.26,1.85-5.44,.44-15.64,.25-23.89-5.69-.81,2.07-3.91,8.06-12.33,6.69-1.33-.23-2.65,.28-3.45,1.36-1.4,2.18-2.27,4.72-2.49,7.34,.35,5.13-2.35,10.18-6.87,12.79l-.59,.34-.15-.66c-1.05-4.62-3.96-7.73-7.24-7.73s-6.18,3.11-7.23,7.73l-.79,3.47Zm8.02-12.2c3.59,0,6.77,3.12,8.05,7.84,3.85-2.5,6.11-6.98,5.8-11.58,.24-2.85,1.16-5.55,2.67-7.89,1.05-1.42,2.74-2.09,4.44-1.78,9.17,1.5,11.34-6.3,11.43-6.63l.19-.72,.6,.45c8.07,6.14,18.34,6.33,23.74,5.9,1.37-.15,2.66-.71,3.71-1.62,.96-.8,1.7-.47,1.96-.19,1.44,1.47,2.84,10.05,3.25,12.75,6.87-3.84,6.03-9.89,4.89-13.21,0,0,0,0,0-.01-16.39-8.38-73.81-2.57-77.11-2.22-1.98,1.58-2.89,2.93-2.62,3.89,.36,1.29,2.8,1.87,3.71,1.99l.64,.08-.24,.6c-2.17,5.45-2.43,13.75-2.4,18.09,1.55-3.51,4.27-5.72,7.29-5.72Z" fill="#002346"></path>
  </g>
  <g>
    <path d="M348.89,114.9c-.59,1.99-1.62,3.83-3,5.38,0,0,1.67,4.8,2.47,13.95,0,.04,0,.08,0,.12,.05,.59,.1,1.2,.14,1.83,.2,2.83,.3,6,.26,9.57,0,0-10.43-7.41-77.72-2.36-.11-2.98-.07-5.96,.14-8.94,.3-4.54,1-10,2.73-14.25,0,0-9-9.86,0-16.59,0,0,5.16-4.93,9.42,0,2.21-2.51,5.02-4.43,8.16-5.58,4.55-1.59,10.65-1.49,17.37,4.69,3.99-2.78,8.95-3.82,13.72-2.86,4.08,.87,7.87,2.78,11,5.55,.41-.42,.87-.78,1.36-1.1,3.17-2.15,7.37-2.04,10.42,.29h0c3.24,2.34,4.65,6.47,3.53,10.3Z" fill="#fbe493"></path>
    <path d="M349.25,146.71l-.78-.55c-.1-.07-11.4-7.22-77.39-2.27l-.52,.04-.02-.52c-.11-2.99-.07-6.01,.14-8.99,.39-5.87,1.28-10.61,2.65-14.12-.9-1.07-4.34-5.47-3.88-10.27,.25-2.65,1.65-4.94,4.16-6.82,.06-.06,2.58-2.43,5.66-2.28,1.5,.07,2.86,.72,4.06,1.94,2.2-2.36,4.96-4.19,7.99-5.31,4.13-1.45,10.51-1.81,17.59,4.53,4.03-2.68,9.02-3.67,13.77-2.72,4.02,.86,7.77,2.71,10.89,5.36,.35-.31,.72-.59,1.11-.84,3.35-2.27,7.77-2.15,10.99,.31,3.39,2.45,4.88,6.81,3.71,10.84h0c-.58,1.96-1.59,3.8-2.92,5.36,.37,1.15,1.71,5.8,2.4,13.79,0,.05,0,.11,0,.17,.05,.58,.1,1.18,.14,1.8,.21,2.99,.3,6.22,.26,9.61v.96Zm-37.01-5.59c25.12,0,33.64,2.73,36.02,3.81,.02-3.06-.07-5.99-.27-8.71-.04-.63-.09-1.24-.14-1.82v-.05s0-.05,0-.05c-.79-8.98-2.43-13.8-2.45-13.85l-.1-.28,.2-.22c1.33-1.48,2.33-3.28,2.89-5.19,1.06-3.62-.29-7.54-3.34-9.75-2.89-2.21-6.85-2.32-9.85-.28-.47,.3-.9,.65-1.29,1.04l-.33,.33-.35-.31c-3.06-2.7-6.78-4.58-10.77-5.44-4.61-.92-9.47,.09-13.33,2.78l-.33,.23-.3-.27c-5.48-5.04-11.15-6.58-16.87-4.59-3.05,1.12-5.8,3-7.95,5.44l-.38,.43-.37-.43c-1.1-1.27-2.35-1.95-3.73-2.01-2.66-.14-4.94,2.03-4.97,2.05-2.32,1.74-3.58,3.79-3.81,6.15-.47,4.95,3.79,9.7,3.83,9.74l.21,.23-.12,.29c-1.4,3.43-2.3,8.17-2.69,14.09-.19,2.77-.24,5.59-.16,8.37,16.95-1.26,30.28-1.73,40.73-1.73Z" fill="#002346"></path>
  </g>
  <g>
    <path d="M229.58,369.58l63.22,29.31s22.38,2.16,30.85,3.14c0,0,6.29,9.82,10.58,14l23,20.6c.73,.65,.81,1.76,.16,2.5-.1,.11-.21,.21-.33,.29-2.88,2.09-6.67,2.43-9.88,.89,0,0,2.68,8.35-10.7,2.58,0,0,.29,6.57-12,3.42,0,0-2.7,5.91-11.31,.82-1.56-.92-3.16-1.8-4.78-2.62-2.11-1.07-5.4-2.93-9.62-5.91l-14.57-13.02c-.92-.82-2.09-1.32-3.32-1.43-12.93-1.07-88.14-7.66-104.74-17.59,.03,0,18.79-24.3,53.44-36.99Z" fill="#f2b3c1"></path>
    <path d="M319.42,449.7c-1.92,0-4.09-.71-6.5-2.14-1.53-.9-3.13-1.78-4.75-2.6-2.05-1.04-5.39-2.92-9.68-5.95l-14.62-13.05c-.84-.75-1.91-1.21-3.03-1.3-14.62-1.21-88.38-7.74-104.95-17.66l-1.55-.93h1.57c2.69-3.29,21.47-25.23,53.51-36.96l.19-.07,63.33,29.36c1.52,.15,22.66,2.19,30.77,3.13l.24,.03,.13,.2c.06,.1,6.31,9.82,10.51,13.91l22.98,20.59c.45,.4,.72,.95,.76,1.56,.04,.61-.16,1.19-.56,1.64-.12,.14-.26,.27-.42,.37-2.76,2.01-6.32,2.48-9.49,1.31,.11,.95,.06,2.39-1,3.35-1.63,1.48-4.97,1.18-9.95-.88-.13,.7-.52,1.75-1.59,2.62-2.04,1.66-5.6,1.88-10.59,.65-.4,.64-1.4,1.92-3.27,2.51-.64,.2-1.33,.3-2.05,.3Zm-142.51-43.27c17.33,9.64,89.58,16.03,104.02,17.23,1.33,.11,2.61,.66,3.61,1.55l14.57,13.02c4.2,2.97,7.49,4.82,9.51,5.84,1.64,.83,3.26,1.72,4.81,2.63,3.06,1.81,5.67,2.39,7.74,1.74,2.07-.65,2.86-2.32,2.86-2.34l.17-.38,.4,.1c6.06,1.55,8.83,.66,10.09-.37,1.34-1.08,1.29-2.53,1.29-2.55l-.04-.8,.73,.32c6.14,2.65,8.56,2.18,9.51,1.32,1.2-1.09,.52-3.27,.52-3.29l-.36-1.11,1.05,.5c3.04,1.46,6.63,1.14,9.37-.84,.1-.07,.18-.14,.25-.22,.22-.25,.34-.58,.31-.92-.02-.34-.17-.65-.43-.87l-23-20.6c-4.01-3.9-9.6-12.45-10.54-13.9-8.54-.98-30.38-3.09-30.61-3.11l-.16-.04-63.03-29.22c-31.06,11.43-49.5,32.49-52.66,36.31Z" fill="#002346"></path>
  </g>
  <g>
    <path d="M336.02,400.46l13.5,21.23s-4.38-15.61-13.5-21.23Z" fill="#f2b3c1"></path>
    <path d="M350.92,424.82l-16.49-25.92,1.85,1.14c9.18,5.66,13.54,20.88,13.72,21.52l.92,3.26Zm-13.05-22.39l9.79,15.39c-1.7-4.36-4.95-11.27-9.79-15.39Z" fill="#002346"></path>
  </g>
  <g>
    <path d="M436.17,428.21s-4.62,3.7-8.78-2.55l-5.09-13.67s.07-3.26,4.35,.67c0,0,1.72-4.28,5.66,.71,.05,.08,.16,.11,.25,.06,.06-.04,.1-.12,.08-.19-.21-1.48-.18-4.44,3.53-3.85,0,0,2-4.56,6.91,0,0,0,1.29-5.65,6.29,.78l11.82,16.46c.92,1.25,.85,2.98-.17,4.15-1.48,1.7-4.15,3.36-8.26,1,0,0-5.15,3.69-9.43-.88,.04-.01-3.63,1.06-7.16-2.69Z" fill="#f2b3c1"></path>
    <path d="M448.26,433.68c-1.6,0-3.41-.53-5.09-2.22-1.13,.22-4.15,.28-7.06-2.59-.67,.42-2.18,1.16-4.04,.87-1.9-.3-3.61-1.57-5.09-3.8l-.05-.1-5.12-13.76v-.1c.01-.46,.23-1.32,.98-1.64,.88-.37,2.1,.13,3.74,1.53,.35-.53,.99-1.25,1.98-1.39,1.11-.16,2.31,.46,3.58,1.84,0-.96,.2-1.98,.92-2.69,.66-.65,1.64-.92,2.9-.78,.33-.56,1.13-1.63,2.51-1.92,1.34-.28,2.83,.26,4.44,1.59,.3-.69,.89-1.64,1.95-1.88,1.42-.32,3.04,.74,4.97,3.22l11.83,16.47c1.06,1.45,.98,3.41-.2,4.77-1.32,1.52-4.18,3.66-8.62,1.25-.65,.39-2.41,1.31-4.52,1.31Zm-5.91-4.56l1.35,1.44c3.94,4.2,8.58,.95,8.77,.82l.26-.19,.28,.16c3.03,1.74,5.6,1.44,7.63-.89,.87-1,.93-2.45,.14-3.53l-11.82-16.46c-1.58-2.04-2.99-3.04-3.95-2.84-.87,.19-1.34,1.42-1.45,1.88l-.2,.84-.63-.59c-1.57-1.46-2.96-2.08-4.12-1.84-1.35,.27-1.98,1.67-1.99,1.68l-.16,.35-.38-.06c-1.11-.18-1.91-.02-2.4,.45-.73,.72-.67,2.08-.56,2.83,.05,.25-.07,.54-.32,.69-.16,.1-.34,.13-.51,.08-.18-.04-.33-.15-.42-.31-1.21-1.53-2.34-2.29-3.24-2.16-1.01,.14-1.52,1.37-1.52,1.38l-.27,.66-.53-.48c-2.14-1.97-2.94-1.85-3.14-1.77-.26,.11-.34,.49-.36,.66l5.03,13.51c1.31,1.95,2.78,3.06,4.37,3.31,2.05,.32,3.64-.91,3.65-.92l.36-.28,.32,.33c2.53,2.68,5.12,2.74,6.17,2.63l-.36-1.38Zm-10.2-15.82s0,.03,0,.04c0-.01,0-.03,0-.04Zm.54-.26s0,.01,.01,.02c0,0,0-.01-.01-.02Z" fill="#002346"></path>
  </g>
  <g opacity=".5">
    <path d="M760.09,260.83l-90.29,.2-126.24-133.25-.68-.86c24.72-3.8,60.3-7.12,97.36-3.39l119.85,137.3Z" fill="#fff"></path>
  </g>
  <g>
    <polygon points="595.77 384.72 635.89 378.53 662.89 378.53 702.33 384.72 595.77 384.72" fill="#fff"></polygon>
    <path d="M702.33,385.22h-106.56l-.08-.99,40.12-6.19h27.08s39.52,6.19,39.52,6.19l-.08,.99Zm-100.05-1h93.64l-33.11-5.2h-26.92s-33.61,5.2-33.61,5.2Z" fill="#002346"></path>
  </g>
  <g>
    <rect x="682.76" y="488.28" width="10.61" height="4.4" fill="#fff"></rect>
    <path d="M693.87,493.18h-11.61v-5.4h11.61v5.4Zm-10.61-1h9.61v-3.4h-9.61v3.4Z" fill="#002346"></path>
  </g>
  <g>
    <rect x="660.54" y="488.28" width="13.96" height="6.18" fill="#e6e7e8"></rect>
    <path d="M675,494.96h-14.96v-7.18h14.96v7.18Zm-13.96-1h12.96v-5.18h-12.96v5.18Z" fill="#002346"></path>
  </g>
  <g>
    <rect x="620.12" y="487.04" width="13.96" height="6.86" fill="#e6e7e8"></rect>
    <path d="M634.58,494.4h-14.96v-7.86h14.96v7.86Zm-13.96-1h12.96v-5.86h-12.96v5.86Z" fill="#002346"></path>
  </g>
  <g>
    <path d="M702.32,384.72v90.56c.01,8.88-7.17,16.08-16.05,16.09h-74.42c-8.88,0-16.08-7.19-16.09-16.07v-90.58h106.56Z" fill="#fbe493"></path>
    <path d="M611.84,491.87c-4.42,0-8.58-1.72-11.72-4.85-3.13-3.13-4.86-7.29-4.86-11.72v-91.08h107.56v91.06c0,4.42-1.71,8.59-4.84,11.72-3.13,3.13-7.29,4.86-11.71,4.87h-74.43Zm-15.58-106.65v90.06c0,4.18,1.63,8.09,4.57,11.03,2.94,2.94,6.85,4.56,11.01,4.56h74.41c4.18,0,8.09-1.63,11.02-4.57,2.94-2.94,4.55-6.86,4.55-11.01v-90.06h-105.56Z" fill="#002346"></path>
  </g>
  <g>
    <path d="M505.23,462.03s21.86-2.77,58.26,6.06c0,0,44,8.46,53.81,21.8l-7.68,7.89-69-8.83-23.43-10.63-7.56-7.93-5.61-3.84,1.21-4.52Z" fill="#e6e7e8"></path>
    <path d="M609.81,498.31l-.25-.03-69.07-8.84-.07-.03-23.59-10.74-7.52-7.89-5.86-4.01,1.39-5.19,.33-.04c.22-.03,22.37-2.68,58.44,6.07,1.78,.34,44.28,8.65,54.1,21.99l.25,.34-8.15,8.37Zm-69.05-9.84l68.68,8.79,7.21-7.4c-10.07-12.84-52.81-21.19-53.25-21.27-33.5-8.13-54.89-6.38-57.77-6.09l-1.03,3.85,5.4,3.71,7.49,7.86,23.27,10.56Z" fill="#002346"></path>
  </g>
  <g>
    <path d="M617.3,489.89c-.78,3.73-2.73,7.11-5.57,9.65-3.61,3.28-9.51,6-19.08,5.56,0,0-44.78-3.64-76.5-17.57,0,0-18-6.54-18-22.66l-.42-23.41-22.28-11.24c.46-.39,.86-.85,1.18-1.36,.19-.29,.35-.59,.49-.91,.47-1.06,.64-2.23,.49-3.38h.05l25.76,12.68,1.81,24.77s2.79,9.87,22.71,16.76c0,0,68.36,22.25,89.36,11.11Z" fill="#fff"></path>
    <path d="M594.67,505.65c-.67,0-1.35-.02-2.04-.05-.47-.04-45.24-3.81-76.68-17.61-.15-.05-18.3-6.84-18.3-23.12l-.41-23.1-22.68-11.44,.57-.49c.42-.36,.79-.78,1.08-1.25,.17-.27,.33-.55,.45-.84,.43-.98,.58-2.05,.45-3.12l-.07-.56h.68l.15,.05,26.02,12.81,1.83,25c.24,.71,3.66,9.91,22.38,16.38,.67,.22,68.39,22.06,88.96,11.14l.94-.5-.22,1.04c-.79,3.81-2.83,7.33-5.73,9.92-4.19,3.81-10.04,5.73-17.39,5.73Zm-118.36-75.56l21.92,11.06,.43,23.71c0,15.6,17.49,22.13,17.67,22.2,31.31,13.75,75.92,17.5,76.37,17.54,8.02,.35,14.33-1.46,18.7-5.43,2.48-2.22,4.29-5.16,5.17-8.36-21.94,10-86.02-10.66-88.78-11.55-19.95-6.9-22.92-16.69-23.04-17.1l-.02-.1-1.79-24.48-24.78-12.2c0,.95-.2,1.9-.58,2.78-.15,.34-.33,.67-.53,.98-.22,.34-.47,.66-.75,.96Z" fill="#002346"></path>
  </g>
  <g>
    <rect x="681.08" y="492.03" width="13.96" height="6.86" fill="#e6e7e8"></rect>
    <path d="M695.54,499.39h-14.96v-7.86h14.96v7.86Zm-13.96-1h12.96v-5.86h-12.96v5.86Z" fill="#002346"></path>
  </g>
  <g>
    <rect x="642.06" y="491.52" width="13.96" height="7.37" fill="#e6e7e8"></rect>
    <path d="M656.52,499.39h-14.96v-8.37h14.96v8.37Zm-13.96-1h12.96v-6.37h-12.96v6.37Z" fill="#002346"></path>
  </g>
  <g>
    <polygon points="486.88 409.39 519.33 404.39 541.18 404.39 573.07 409.39 486.88 409.39" fill="#fff"></polygon>
    <path d="M573.07,409.89h-86.19l-.08-.99,32.45-5h21.93s31.97,5,31.97,5l-.08,.99Zm-79.67-1h73.25l-25.55-4.01h-21.77s-25.93,4.01-25.93,4.01Z" fill="#002346"></path>
  </g>
  <g>
    <path d="M229.58,369.58s-33.09,9.79-59.3,44.21c0,0-30.18-37.86-22.5-56.92l36.16-106s30.35,20.77,31.58,68.26c.02,1.14-.08,2.28-.32,3.39l-5.74,27.45,20.12,19.61Z" fill="#fbe493"></path>
    <path d="M170.29,414.6l-.4-.5c-1.24-1.55-30.27-38.31-22.57-57.42l36.36-106.6,.54,.37c.31,.21,30.57,21.46,31.8,68.66,.02,1.18-.09,2.36-.33,3.51l-5.68,27.18,20.53,20.01-.82,.24c-.33,.1-33.24,10.15-59.04,44.03l-.39,.51Zm13.9-162.93l-35.94,105.35c-7.02,17.42,18.51,51.39,22.02,55.94,23.69-30.81,53.16-41.85,58.36-43.61l-19.72-19.22,5.8-27.72c.23-1.08,.33-2.18,.31-3.28-1.12-43.19-26.77-64.38-30.83-67.46Z" fill="#002346"></path>
  </g>
  <path d="M182.07,363.84c-.19,0-.36-.1-.45-.28-.12-.25-.02-.55,.23-.67l27.39-13.37c.25-.12,.55-.02,.67,.23,.12,.25,.02,.55-.23,.67l-27.39,13.37c-.07,.03-.15,.05-.22,.05Z" fill="#002346"></path>
  <path d="M324.48,446.81c-.1,0-.2-.03-.29-.09l-21.85-15.42c-.23-.16-.28-.47-.12-.7,.16-.23,.47-.28,.7-.12l21.85,15.42c.23,.16,.28,.47,.12,.7-.1,.14-.25,.21-.41,.21Z" fill="#002346"></path>
  <path d="M336.48,443.39c-.11,0-.22-.04-.31-.11l-20.05-15.87c-.22-.17-.25-.49-.08-.7,.17-.22,.49-.25,.7-.08l20.05,15.87c.22,.17,.25,.49,.08,.7-.1,.12-.24,.19-.39,.19Z" fill="#002346"></path>
  <path d="M347.18,440.81c-.12,0-.24-.04-.33-.12l-20.73-18.25c-.21-.18-.23-.5-.04-.71,.18-.21,.5-.23,.71-.04l20.73,18.25c.21,.18,.23,.5,.04,.71-.1,.11-.24,.17-.38,.17Z" fill="#002346"></path>
  <path d="M436.17,428.71c-.17,0-.33-.08-.43-.24l-9.52-15.55c-.14-.24-.07-.54,.17-.69,.24-.14,.54-.07,.69,.17l9.52,15.55c.14,.24,.07,.54-.17,.69-.08,.05-.17,.07-.26,.07Z" fill="#002346"></path>
  <path d="M452.76,432.28c-.16,0-.31-.07-.41-.21l-12.02-17.24c-.16-.23-.1-.54,.12-.7,.23-.16,.54-.1,.7,.12l12.02,17.24c.16,.23,.1,.54-.12,.7-.09,.06-.19,.09-.29,.09Z" fill="#002346"></path>
  <path d="M442.07,430.5c-.18,0-.35-.1-.44-.27l-7.3-13.98c-.13-.25-.03-.55,.21-.67,.24-.12,.55-.03,.67,.21l7.3,13.98c.13,.25,.03,.55-.21,.67-.07,.04-.15,.06-.23,.06Z" fill="#002346"></path>
  <path d="M345.89,120.78s-.09,0-.13-.02c-.19-.05-19.66-5.21-43.29-3.25-.28,.02-.52-.18-.54-.46-.02-.28,.18-.52,.46-.54,23.81-1.99,43.44,3.22,43.63,3.28,.27,.07,.42,.35,.35,.61-.06,.22-.26,.37-.48,.37Z" fill="#002346"></path>
  <g>
    <path d="M705.65,376.78h7.06c.77,0,1.4,.63,1.4,1.4h0v3.4h-9.86v-3.4c0-.77,.63-1.4,1.4-1.4Z" fill="#fff"></path>
    <path d="M714.61,382.08h-10.86v-3.9c0-1.05,.85-1.9,1.9-1.9h7.06c1.05,0,1.9,.85,1.9,1.9v3.9Zm-9.86-1h8.86v-2.9c0-.5-.4-.9-.9-.9h-7.06c-.5,0-.9,.4-.9,.9v2.9Z" fill="#002346"></path>
  </g>
  <g>
    <path d="M593.87,381.67h-9.86v-3.4c0-.77,.63-1.4,1.4-1.4h7.06c.77,0,1.4,.63,1.4,1.4h0v3.4h0Z" fill="#fff"></path>
    <path d="M594.37,382.17h-10.86v-3.9c0-1.05,.85-1.9,1.9-1.9h7.06c1.05,0,1.9,.85,1.9,1.9v3.9Zm-9.86-1h8.86v-2.9c0-.5-.4-.9-.9-.9h-7.06c-.5,0-.9,.4-.9,.9v2.9Z" fill="#002346"></path>
  </g>
  <g>
    <path d="M777.37,280.08c-.07,3.67,.08,7.34,.43,11l-.86,2.41h-105.85l-153.86-161.46,5.72-1.61,9.56-2.68,.7,.74,131.45,138.76,100.28-.85-124.7-142.9-.43-.5,20.13,3,.11,.13,119.68,139.48c-.49,2.53-1,4.61-1.29,6.15-.64,2.73-.99,5.52-1.07,8.33Z" fill="#fff"></path>
    <path d="M777.29,293.99h-106.42l-.15-.16-154.43-162.06,16.37-4.6,.91,.96,131.3,138.6,98.97-.84-124.42-142.58-.88-1.02,21.64,3.23,.23,.27,119.83,139.66-.05,.24c-.26,1.37-.53,2.6-.77,3.69-.2,.93-.38,1.75-.52,2.46-.63,2.72-.99,5.49-1.06,8.25-.07,3.64,.08,7.32,.43,10.94v.11s-1,2.85-1,2.85Zm-105.99-1h105.28l.7-1.97c-.35-3.63-.49-7.31-.42-10.95h0c.08-2.83,.44-5.67,1.08-8.43,.13-.7,.31-1.53,.52-2.47,.22-1.02,.47-2.17,.72-3.43l-119.51-139.29-18.61-2.77,124.96,143.2-101.58,.86-.15-.16-131.94-139.28-14.19,3.98,153.14,160.7Z" fill="#002346"></path>
  </g>
  <g>
    <g>
      <path d="M109.84,441.78v43.16c0,1.15-.94,2.09-2.09,2.09h-18c-1.15,0-2.09-.94-2.09-2.09v-43.16c0-.47,.38-.85,.85-.85h2.09v-2.15h2v-1.9h2.42l2.17-15.63h1.63l2.86,15.63h2.32v1.9h1.85v2.17h3.17c.45,.02,.81,.38,.82,.83Z" fill="#f69074"></path>
      <path d="M107.75,487.53h-18c-1.43,0-2.59-1.16-2.59-2.59v-43.16c0-.74,.61-1.35,1.35-1.35h1.59v-2.15h2v-1.9h2.48l2.17-15.63h2.48l2.86,15.63h2.4v1.9h1.85v2.17h2.67c.73,.03,1.3,.61,1.32,1.32h0v43.17c0,1.43-1.16,2.59-2.59,2.59Zm-19.24-46.1c-.19,0-.35,.16-.35,.35v43.16c0,.88,.71,1.59,1.59,1.59h18c.88,0,1.59-.71,1.59-1.59v-43.15c0-.18-.15-.33-.34-.34h-3.65v-2.17h-1.85v-1.9h-2.24l-2.86-15.63h-.78l-2.17,15.63h-2.36v1.9h-2v2.15h-2.59Z" fill="#002346"></path>
    </g>
    <path d="M105.85,441.45h-8.99c-.28,0-.5-.22-.5-.5s.22-.5,.5-.5h8.99c.28,0,.5,.22,.5,.5s-.22,.5-.5,.5Z" fill="#002346"></path>
  </g>
  <g>
    <g>
      <path d="M138.84,441.78v43.16c0,1.15-.94,2.09-2.09,2.09h-18c-1.15,0-2.09-.94-2.09-2.09v-43.16c0-.47,.38-.85,.85-.85h2.09v-2.15h2v-1.9h2.42l2.17-15.63h1.63l2.86,15.63h2.32v1.9h1.85v2.17h3.17c.45,.02,.81,.38,.82,.83Z" fill="#f69074"></path>
      <path d="M136.75,487.53h-18c-1.43,0-2.59-1.16-2.59-2.59v-43.16c0-.74,.61-1.35,1.35-1.35h1.59v-2.15h2v-1.9h2.48l2.17-15.63h2.48l2.86,15.63h2.4v1.9h1.85v2.17h2.67c.73,.03,1.3,.61,1.32,1.32h0v43.17c0,1.43-1.16,2.59-2.59,2.59Zm-19.24-46.1c-.19,0-.35,.16-.35,.35v43.16c0,.88,.71,1.59,1.59,1.59h18c.88,0,1.59-.71,1.59-1.59v-43.15c0-.18-.15-.33-.34-.34h-3.65v-2.17h-1.85v-1.9h-2.24l-2.86-15.63h-.78l-2.17,15.63h-2.36v1.9h-2v2.15h-2.59Z" fill="#002346"></path>
    </g>
    <path d="M134.85,441.45h-8.99c-.28,0-.5-.22-.5-.5s.22-.5,.5-.5h8.99c.28,0,.5,.22,.5,.5s-.22,.5-.5,.5Z" fill="#002346"></path>
  </g>
  <g>
    <g>
      <path d="M170.84,441.78v43.16c0,1.15-.94,2.09-2.09,2.09h-18c-1.15,0-2.09-.94-2.09-2.09v-43.16c0-.47,.38-.85,.85-.85h2.09v-2.15h2v-1.9h2.42l2.17-15.63h1.63l2.86,15.63h2.32v1.9h1.85v2.17h3.17c.45,.02,.81,.38,.82,.83Z" fill="#f69074"></path>
      <path d="M168.75,487.53h-18c-1.43,0-2.59-1.16-2.59-2.59v-43.16c0-.74,.61-1.35,1.35-1.35h1.59v-2.15h2v-1.9h2.48l2.17-15.63h2.48l2.86,15.63h2.4v1.9h1.85v2.17h2.67c.73,.03,1.3,.61,1.32,1.32h0v43.17c0,1.43-1.16,2.59-2.59,2.59Zm-19.24-46.1c-.19,0-.35,.16-.35,.35v43.16c0,.88,.71,1.59,1.59,1.59h18c.88,0,1.59-.71,1.59-1.59v-43.15c0-.18-.15-.33-.34-.34h-3.65v-2.17h-1.85v-1.9h-2.24l-2.86-15.63h-.78l-2.17,15.63h-2.36v1.9h-2v2.15h-2.59Z" fill="#002346"></path>
    </g>
    <path d="M166.85,441.45h-8.99c-.28,0-.5-.22-.5-.5s.22-.5,.5-.5h8.99c.28,0,.5,.22,.5,.5s-.22,.5-.5,.5Z" fill="#002346"></path>
  </g>
</svg>
